name rise43.5482peak65.4966fall89.1036.mot
datacolumns 19
datarows 23
range 1.77165900000000 1.80832200000000
endheader
time	ground_force1_vx	ground_force1_vy	ground_force1_vz	ground_force1_px	ground_force1_py	ground_force1_pz	ground_force2_vx	ground_force2_vy	ground_force2_vz	ground_force2_px	ground_force2_py	ground_force2_pz	ground_torque1_x	ground_torque1_y	ground_torque1_z	ground_torque2_x	ground_torque2_y	ground_torque2_z	
1.77165900000000	-5.11736600000000	43.14803900000000	-9.00422800000000	0.28065300000000	0.00000000000000	0.14127800000000	-35.67668800000000	800.18889400000000	-59.77479900000000	0.09931600000000	0.00000000000000	-0.06998200000000	0.00000000000000	-4.48921800000000	0.00000000000000	0.00000000000000	-16.16838500000000	0.00000000000000	
1.77332500000000	-5.61329200000000	50.50130700000000	-10.06262400000000	0.28420500000000	0.00000000000000	0.14214000000000	-36.46923500000000	797.67893100000003	-59.40347800000000	0.09850800000000	0.00000000000000	-0.06985200000000	0.00000000000000	-5.07928600000000	0.00000000000000	0.00000000000000	-16.09076000000000	0.00000000000000	
1.77500900000000	-6.01032000000000	57.92508200000000	-11.00149800000000	0.28737500000000	0.00000000000000	0.14292800000000	-37.27955300000000	795.02209200000004	-59.01559000000000	0.09769800000000	0.00000000000000	-0.06972000000000	0.00000000000000	-5.62169100000000	0.00000000000000	0.00000000000000	-16.01535500000000	0.00000000000000	
1.77668400000000	-6.29352300000000	65.32079200000000	-11.79678000000000	0.29022500000000	0.00000000000000	0.14365400000000	-38.10679700000000	792.21455400000002	-58.61087800000000	0.09688700000000	0.00000000000000	-0.06958700000000	0.00000000000000	-6.10358200000000	0.00000000000000	0.00000000000000	-15.94213700000000	0.00000000000000	
1.77832100000000	-6.45355400000000	72.61390100000000	-12.43290400000000	0.29280600000000	0.00000000000000	0.14432600000000	-38.95000500000000	789.25250000000005	-58.18908300000000	0.09607400000000	0.00000000000000	-0.06945200000000	0.00000000000000	-6.51627100000000	0.00000000000000	0.00000000000000	-15.87105300000000	0.00000000000000	
1.78000200000000	-6.48660100000000	79.75615600000000	-12.90284500000000	0.29515600000000	0.00000000000000	0.14495200000000	-39.80810300000000	786.13212599999997	-57.74995300000000	0.09526000000000	0.00000000000000	-0.06931600000000	0.00000000000000	-6.85533300000000	0.00000000000000	0.00000000000000	-15.80203100000000	0.00000000000000	
1.78166800000000	-6.39389900000000	86.72529400000001	-13.20745500000000	0.29731000000000	0.00000000000000	0.14553700000000	-40.67989900000000	782.84965799999998	-57.29324100000000	0.09444500000000	0.00000000000000	-0.06917900000000	0.00000000000000	-7.12034300000000	0.00000000000000	0.00000000000000	-15.73498200000000	0.00000000000000	
1.78332300000000	-6.18091400000000	93.52266600000000	-13.35427100000000	0.29929400000000	0.00000000000000	0.14608600000000	-41.56409200000000	779.40136800000005	-56.81871000000000	0.09363000000000	0.00000000000000	-0.06904000000000	0.00000000000000	-7.31432600000000	0.00000000000000	0.00000000000000	-15.66979900000000	0.00000000000000	
1.78501000000000	-5.85632700000000	100.16933200000000	-13.35597300000000	0.30113000000000	0.00000000000000	0.14660400000000	-42.45926700000000	775.78358600000001	-56.32613400000000	0.09281500000000	0.00000000000000	-0.06890000000000	0.00000000000000	-7.44301800000000	0.00000000000000	0.00000000000000	-15.60635600000000	0.00000000000000	
1.78665500000000	-5.43093800000000	106.70121800000000	-13.22869700000000	0.30283700000000	0.00000000000000	0.14709300000000	-43.36390100000000	771.99271499999998	-55.81530300000000	0.09199900000000	0.00000000000000	-0.06875900000000	0.00000000000000	-7.51402700000000	0.00000000000000	0.00000000000000	-15.54451100000000	0.00000000000000	
1.78832400000000	-4.91658300000000	113.16390000000000	-12.99034900000000	0.30443100000000	0.00000000000000	0.14755700000000	-44.27636300000000	768.02525400000002	-55.28602200000000	0.09118500000000	0.00000000000000	-0.06861600000000	0.00000000000000	-7.53599500000000	0.00000000000000	0.00000000000000	-15.48410300000000	0.00000000000000	
1.78999600000000	-4.32516800000000	119.60750899999999	-12.65907600000000	0.30592400000000	0.00000000000000	0.14799900000000	-45.19491900000000	763.87780599999996	-54.73811800000000	0.09037100000000	0.00000000000000	-0.06847100000000	0.00000000000000	-7.51780600000000	0.00000000000000	0.00000000000000	-15.42495700000000	0.00000000000000	
1.79165400000000	-3.66785700000000	126.08213200000000	-12.25197600000000	0.30732800000000	0.00000000000000	0.14841900000000	-46.11773500000000	759.54710100000000	-54.17144100000000	0.08955900000000	0.00000000000000	-0.06832600000000	0.00000000000000	-7.46792100000000	0.00000000000000	0.00000000000000	-15.36688000000000	0.00000000000000	
1.79332000000000	-2.95447200000000	132.63400300000001	-11.78410600000000	0.30865100000000	0.00000000000000	0.14882000000000	-47.04288000000000	755.03001300000005	-53.58586500000000	0.08874800000000	0.00000000000000	-0.06817900000000	0.00000000000000	-7.39385800000000	0.00000000000000	0.00000000000000	-15.30966400000000	0.00000000000000	
1.79501200000000	-2.19309500000000	139.30261800000000	-11.26783100000000	0.30990300000000	0.00000000000000	0.14920300000000	-47.96833500000000	750.32358099999999	-52.98129400000000	0.08793900000000	0.00000000000000	-0.06803000000000	0.00000000000000	-7.30182700000000	0.00000000000000	0.00000000000000	-15.25308700000000	0.00000000000000	
1.79665500000000	-1.38988000000000	146.11885400000000	-10.71247900000000	0.31108800000000	0.00000000000000	0.14957000000000	-48.89199200000000	745.42502200000001	-52.35766200000000	0.08713300000000	0.00000000000000	-0.06788000000000	0.00000000000000	-7.19653500000000	0.00000000000000	0.00000000000000	-15.19691300000000	0.00000000000000	
1.79832000000000	-0.54905000000000	153.10404000000000	-10.12429500000000	0.31221300000000	0.00000000000000	0.14992300000000	-49.81166300000000	740.33175800000004	-51.71493800000000	0.08633000000000	0.00000000000000	-0.06772800000000	0.00000000000000	-7.08113600000000	0.00000000000000	0.00000000000000	-15.14089300000000	0.00000000000000	
1.80002200000000	0.32696200000000	160.26987900000000	-9.50662800000000	0.31328300000000	0.00000000000000	0.15026100000000	-50.72508800000000	735.04142999999999	-51.05312600000000	0.08553100000000	0.00000000000000	-0.06757500000000	0.00000000000000	-6.95730800000000	0.00000000000000	0.00000000000000	-15.08476500000000	0.00000000000000	
1.80165600000000	1.23725500000000	167.61908299999999	-8.86030400000000	0.31430000000000	0.00000000000000	0.15058500000000	-51.62993800000000	729.55192000000000	-50.37226700000000	0.08473500000000	0.00000000000000	-0.06742000000000	0.00000000000000	-6.82542100000000	0.00000000000000	0.00000000000000	-15.02825900000000	0.00000000000000	
1.80332200000000	2.18212800000000	175.14652599999999	-8.18412500000000	0.31526900000000	0.00000000000000	0.15089700000000	-52.52382200000000	723.86137199999996	-49.67244600000000	0.08394300000000	0.00000000000000	-0.06726300000000	0.00000000000000	-6.68478200000000	0.00000000000000	0.00000000000000	-14.97109100000000	0.00000000000000	
1.80499800000000	3.16272100000000	182.84074799999999	-7.47542300000000	0.31619100000000	0.00000000000000	0.15119800000000	-53.40429700000000	717.96820500000001	-48.95378500000000	0.08315500000000	0.00000000000000	-0.06710400000000	0.00000000000000	-6.53390900000000	0.00000000000000	0.00000000000000	-14.91297300000000	0.00000000000000	
1.80665300000000	4.18064800000000	190.68562399999999	-6.73062600000000	0.31706900000000	0.00000000000000	0.15148700000000	-54.26887500000000	711.87113699999998	-48.21645600000000	0.08237200000000	0.00000000000000	-0.06694400000000	0.00000000000000	-6.37081200000000	0.00000000000000	0.00000000000000	-14.85360600000000	0.00000000000000	
1.80832200000000	5.23766000000000	198.66204900000000	-5.94579100000000	0.31790500000000	0.00000000000000	0.15176500000000	-55.11502500000000	705.56919800000003	-47.46067300000000	0.08159400000000	0.00000000000000	-0.06678200000000	0.00000000000000	-6.19326700000000	0.00000000000000	0.00000000000000	-14.79268700000000	0.00000000000000	
